<svg width="229" height="40" viewBox="0 0 229 40" fill="none" xmlns="http://www.w3.org/2000/svg">
<path d="M19.9612 3.388H0V6.22953H19.9612V3.388Z" fill="#0165FF"/>
<path d="M19.9612 11.8033H0V14.6449H19.9612V11.8033Z" fill="#0165FF"/>
<path d="M25.7601 37.0492H22.8607V3.388H54.308V6.22953H25.7601V37.0492Z" fill="#0165FF"/>
<path d="M34.3467 37.0492H31.4473V11.8033H54.3079V14.6449H34.3467V37.0492Z" fill="#0165FF"/>
<path d="M71.2582 3.388L51.52 37.0492H54.754L74.6037 3.388H71.2582Z" fill="#0165FF"/>
<path d="M82.5214 3.388L62.6716 37.0492H66.0171L85.7553 3.388H82.5214Z" fill="#0165FF"/>
<path d="M97.2415 4.59015V3.49725H104.378V4.59015H101.591V10.4918H100.141V4.59015H97.2415Z" fill="black"/>
<path d="M106.163 4.15303C106.832 3.60658 107.835 3.388 109.173 3.388C110.512 3.388 111.515 3.60658 112.184 4.15303C112.853 4.69948 113.188 5.68308 113.188 6.99456C113.188 8.30603 112.853 9.28964 112.184 9.83609C111.515 10.3825 110.512 10.6011 109.173 10.6011C107.835 10.6011 106.943 10.3825 106.163 9.83609C105.493 9.28964 105.159 8.30603 105.159 6.99456C105.159 5.57379 105.493 4.69948 106.163 4.15303ZM111.738 6.5574C111.738 5.79237 111.515 5.24592 111.069 4.80877C110.623 4.4809 110.066 4.26232 109.173 4.26232C108.393 4.26232 107.724 4.4809 107.278 4.80877C106.832 5.13664 106.609 5.68308 106.609 6.5574V7.32243C106.609 8.08745 106.832 8.6339 107.278 8.96177C107.724 9.28964 108.281 9.50822 109.173 9.50822C109.954 9.50822 110.623 9.28964 111.069 8.96177C111.515 8.6339 111.738 8.08745 111.738 7.21314V6.5574Z" fill="black"/>
<path d="M113.969 9.18031H114.08C114.303 9.18031 114.526 9.18031 114.638 9.07102C114.749 8.96173 114.972 8.85244 114.972 8.63387C115.084 8.41529 115.195 8.19671 115.195 7.75955C115.195 7.43168 115.307 6.99452 115.307 6.33878V3.49725H121.552V10.4918H120.102V4.59015H116.645V6.44807C116.645 7.2131 116.645 7.86884 116.534 8.41529C116.422 8.96173 116.311 9.2896 116.087 9.61747C115.864 9.94534 115.641 10.1639 115.307 10.2732C114.972 10.3825 114.638 10.4918 114.192 10.4918H113.857V9.18031H113.969Z" fill="black"/>
<path d="M123.559 3.49725H125.009V5.90163H128.131C128.912 5.90163 129.581 6.1202 130.027 6.44807C130.473 6.88523 130.584 7.43168 130.584 8.08742C130.584 8.85244 130.361 9.39889 130.027 9.83605C129.581 10.2732 129.023 10.4918 128.131 10.4918H123.559V3.49725ZM129.135 7.86884C129.135 7.54097 129.023 7.32239 128.8 7.10381C128.577 6.88523 128.243 6.77594 127.797 6.77594H125.009V9.2896H127.797C128.243 9.2896 128.577 9.18031 128.8 8.96173C129.023 8.74315 129.135 8.52458 129.135 8.08742V7.86884Z" fill="black"/>
<path d="M134.599 7.86887L132.926 10.3825H131.365L133.149 7.65029C132.592 7.541 132.146 7.32243 131.923 6.88527C131.588 6.5574 131.477 6.12024 131.477 5.57379C131.477 4.91805 131.7 4.37161 132.146 3.93445C132.592 3.49729 133.149 3.388 133.93 3.388H138.502V10.3825H137.052V7.86887H134.599ZM134.153 4.4809C133.818 4.4809 133.484 4.59019 133.261 4.69948C133.038 4.91806 132.926 5.13663 132.926 5.4645V5.79237C132.926 6.12024 133.038 6.33882 133.261 6.5574C133.484 6.77598 133.707 6.77598 134.153 6.77598H137.052V4.37161H134.153V4.4809Z" fill="black"/>
<path d="M139.617 4.59015V3.49725H146.754V4.59015H143.966V10.4918H142.517V4.59015H139.617Z" fill="black"/>
<path d="M147.869 4.59015V3.49725H155.006V4.59015H152.107V10.4918H150.657V4.59015H147.869Z" fill="black"/>
<path d="M157.683 3.49725V8.85244L161.92 3.49725H163.593V10.4918H162.143V5.1366L157.906 10.4918H156.233V3.49725H157.683Z" fill="black"/>
<path d="M166.938 3.49725V6.33878H171.176V3.49725H172.626V10.4918H171.176V7.54097H166.938V10.4918H165.489V3.49725H166.938Z" fill="black"/>
<path d="M174.745 4.153C175.414 3.60656 176.306 3.27869 177.644 3.27869C178.759 3.27869 179.54 3.49727 180.209 3.82513C180.766 4.153 181.212 4.80874 181.324 5.57377H179.874C179.763 5.13661 179.54 4.80874 179.205 4.69945C178.871 4.48087 178.313 4.48087 177.755 4.48087C176.975 4.48087 176.306 4.69945 175.971 5.02732C175.637 5.35519 175.414 5.90164 175.414 6.66666V7.54098C175.414 8.30601 175.637 8.85246 175.971 9.18033C176.417 9.5082 176.975 9.61749 177.755 9.61749C178.425 9.61749 178.871 9.50819 179.317 9.28962C179.651 9.07104 179.874 8.85246 179.986 8.4153H181.435C181.324 9.18033 180.878 9.72677 180.32 10.0546C179.763 10.3825 178.871 10.6011 177.755 10.6011C176.529 10.6011 175.525 10.3825 174.856 9.83606C174.187 9.28962 173.852 8.4153 173.852 6.99453C173.852 5.68306 174.187 4.69945 174.745 4.153Z" fill="black"/>
<path d="M184.112 3.49725V6.33878H185.227L188.015 3.49725H189.688L186.454 6.77594L190.022 10.3825H188.126L185.227 7.43168H184.112V10.3825H182.662V3.49725H184.112Z" fill="black"/>
<path d="M192.587 3.49725V8.85244L196.825 3.49725H198.497V10.4918H197.048V5.1366L192.81 10.4918H191.137V3.49725H192.587Z" fill="black"/>
<path d="M201.731 3.49727V8.96175L205.857 3.49727H207.53V10.4918H206.08V5.02732L201.954 10.4918H200.281V3.49727H201.731ZM202.735 0C202.735 0.437158 202.846 0.874317 203.069 1.0929C203.292 1.31148 203.627 1.42077 204.073 1.42077C204.519 1.42077 204.854 1.31148 204.965 1.0929C205.188 0.874317 205.3 0.437158 205.3 0H206.526C206.526 0.765027 206.303 1.42076 205.857 1.74863C205.411 2.18579 204.854 2.40437 204.073 2.40437C203.292 2.40437 202.623 2.18579 202.289 1.74863C201.843 1.31147 201.62 0.765027 201.62 0H202.735Z" fill="black"/>
<path d="M103.709 16.7213V17.8142H99.5832V23.7158H98.1335V16.7213H103.709Z" fill="black"/>
<path d="M105.159 17.377C105.828 16.8306 106.832 16.612 108.17 16.612C109.508 16.612 110.512 16.8306 111.181 17.377C111.85 17.9235 112.184 18.9071 112.184 20.2186C112.184 21.53 111.85 22.5136 111.181 23.0601C110.512 23.6065 109.508 23.8251 108.17 23.8251C106.832 23.8251 105.94 23.6065 105.159 23.0601C104.49 22.5136 104.155 21.53 104.155 20.2186C104.155 18.9071 104.49 17.9235 105.159 17.377ZM110.623 19.8907C110.623 19.1257 110.4 18.5792 109.954 18.1421C109.508 17.8142 108.95 17.5956 108.058 17.5956C107.278 17.5956 106.609 17.8142 106.163 18.1421C105.716 18.4699 105.493 19.0164 105.493 19.8907V20.6557C105.493 21.4207 105.716 21.9672 106.163 22.2951C106.609 22.6229 107.166 22.8415 108.058 22.8415C108.839 22.8415 109.508 22.6229 109.954 22.2951C110.4 21.9672 110.623 21.4207 110.623 20.5464V19.8907Z" fill="black"/>
<path d="M114.303 17.4863C114.972 16.9399 115.865 16.612 117.203 16.612C118.318 16.612 119.098 16.8306 119.768 17.1584C120.325 17.4863 120.771 18.1421 120.883 18.9071H119.433C119.322 18.4699 119.098 18.1421 118.764 18.0328C118.318 17.7049 117.76 17.7049 117.203 17.7049C116.422 17.7049 115.753 17.9235 115.418 18.2513C115.084 18.5792 114.861 19.1257 114.861 19.8907V20.765C114.861 21.53 115.084 22.0765 115.418 22.4043C115.865 22.7322 116.422 22.8415 117.203 22.8415C117.872 22.8415 118.318 22.7322 118.764 22.5136C119.098 22.2951 119.322 22.0765 119.433 21.6393H120.883C120.771 22.4043 120.325 22.9508 119.768 23.2787C119.21 23.6065 118.318 23.8251 117.203 23.8251C115.976 23.8251 114.972 23.6065 114.303 23.0601C113.634 22.5136 113.3 21.6393 113.3 20.2186C113.3 19.0164 113.634 18.0328 114.303 17.4863Z" fill="black"/>
<path d="M122.667 25.4645C123.113 25.4645 123.447 25.3552 123.671 25.2459C123.894 25.1366 124.117 24.8087 124.228 24.3716L124.451 23.8251L120.994 16.7213H122.555L125.232 22.2951L127.797 16.7213H129.135L125.343 24.5902C125.009 25.2459 124.674 25.7923 124.34 26.0109C124.005 26.2295 123.447 26.4481 122.778 26.4481H121.775V25.3552H122.667V25.4645Z" fill="black"/>
<path d="M129.135 22.6229H129.915C130.138 22.1858 130.361 21.7486 130.473 21.2022C130.584 20.6557 130.584 19.8907 130.584 19.1256V16.8306H137.164V22.7322H138.279V25.7923H136.941V23.8251H130.584V25.7923H129.246V22.6229H129.135ZM132.034 17.9235V19.1256C132.034 19.8907 132.034 20.6557 131.923 21.2022C131.811 21.7486 131.7 22.295 131.477 22.6229H135.714V17.9235H132.034Z" fill="black"/>
<path d="M139.952 20.3278C140.398 20 141.067 19.7814 142.182 19.6721L145.193 19.5628V19.3442C145.193 18.6885 144.97 18.2513 144.635 18.0327C144.301 17.8142 143.743 17.5956 143.074 17.5956C142.517 17.5956 142.071 17.7049 141.624 17.8142C141.29 18.0327 141.067 18.2513 140.955 18.6885H139.506C139.617 17.9235 139.952 17.377 140.509 17.0491C141.067 16.7213 141.959 16.5027 143.074 16.5027C144.301 16.5027 145.193 16.7213 145.751 17.1584C146.308 17.5956 146.643 18.3606 146.643 19.2349V23.6065H145.193V22.295C144.97 22.7322 144.524 23.0601 143.966 23.3879C143.409 23.6065 142.74 23.7158 141.959 23.7158C140.955 23.7158 140.286 23.4972 139.84 23.1694C139.394 22.8415 139.171 22.295 139.171 21.6393C139.283 21.2021 139.506 20.6557 139.952 20.3278ZM141.178 22.6229C141.401 22.8415 141.848 22.8415 142.405 22.8415C142.74 22.8415 143.074 22.8415 143.409 22.7322C143.743 22.6229 144.078 22.5136 144.301 22.4043C144.524 22.295 144.747 22.0765 144.858 21.7486C144.97 21.53 145.081 21.2021 145.081 20.765V20.4371L142.294 20.5464C141.736 20.5464 141.29 20.6557 141.067 20.8743C140.844 20.9836 140.621 21.3114 140.621 21.6393V21.7486C140.732 22.1857 140.844 22.4043 141.178 22.6229Z" fill="black"/>
<path d="M150.1 16.7213V18.0328C150.323 17.5956 150.769 17.1584 151.215 16.9399C151.772 16.7213 152.33 16.612 152.999 16.612C154.114 16.612 155.006 16.9399 155.675 17.4863C156.344 18.0328 156.679 19.0164 156.679 20.3278C156.679 21.6393 156.344 22.6229 155.675 23.1694C155.006 23.7158 154.114 24.0437 152.999 24.0437C152.33 24.0437 151.661 23.9344 151.215 23.7158C150.657 23.4972 150.323 23.1694 150.1 22.7322V26.6666H148.65V16.8306H150.1V16.7213ZM155.229 19.8907C155.229 19.1257 155.006 18.5792 154.56 18.1421C154.114 17.8142 153.557 17.5956 152.664 17.5956C151.772 17.5956 151.215 17.8142 150.769 18.1421C150.323 18.4699 150.1 19.0164 150.1 19.8907V20.6557C150.1 21.4207 150.323 21.9672 150.769 22.2951C151.215 22.6229 151.772 22.8415 152.664 22.8415C153.445 22.8415 154.114 22.6229 154.56 22.2951C155.006 21.9672 155.229 21.4207 155.229 20.6557V19.8907Z" fill="black"/>
<path d="M158.909 17.4863C159.578 16.9399 160.471 16.612 161.809 16.612C162.924 16.612 163.705 16.8306 164.374 17.1584C164.931 17.4863 165.377 18.1421 165.489 18.9071H164.039C163.928 18.4699 163.705 18.1421 163.37 18.0328C162.924 17.7049 162.366 17.7049 161.809 17.7049C161.028 17.7049 160.359 17.9235 160.025 18.2513C159.69 18.5792 159.467 19.1257 159.467 19.8907V20.765C159.467 21.53 159.69 22.0765 160.025 22.4043C160.471 22.7322 161.028 22.8415 161.809 22.8415C162.478 22.8415 162.924 22.7322 163.37 22.5136C163.705 22.2951 163.928 22.0765 164.039 21.6393H165.489C165.377 22.4043 164.931 22.9508 164.374 23.2787C163.816 23.6065 162.924 23.8251 161.809 23.8251C160.582 23.8251 159.578 23.6065 158.909 23.0601C158.24 22.5136 157.906 21.6393 157.906 20.2186C157.906 19.0164 158.24 18.0328 158.909 17.4863Z" fill="black"/>
<path d="M165.935 17.9235V16.8306H173.072V17.9235H170.172V23.8251H168.723V17.9235H165.935Z" fill="black"/>
<path d="M179.094 16.7213C179.874 16.7213 180.543 16.8306 180.878 17.1584C181.212 17.4863 181.435 17.9235 181.435 18.3606C181.435 18.6885 181.324 19.0164 181.212 19.3442C180.989 19.6721 180.655 19.8907 180.209 20C180.766 20.1093 181.212 20.3278 181.435 20.6557C181.658 20.9836 181.77 21.3115 181.77 21.6393C181.77 22.2951 181.547 22.8415 181.212 23.1694C180.766 23.4972 180.209 23.6065 179.428 23.6065H174.745V16.612H179.094V16.7213ZM179.986 18.5792C179.986 18.3606 179.874 18.1421 179.763 17.9235C179.651 17.8142 179.317 17.7049 178.871 17.7049H175.971V19.6721H178.871C179.317 19.6721 179.54 19.5628 179.651 19.4535C179.763 19.2349 179.874 19.1257 179.874 18.7978V18.5792H179.986ZM180.209 21.53C180.209 21.2022 180.097 20.9836 179.874 20.8743C179.651 20.765 179.317 20.6557 178.982 20.6557H176.083V22.8415H178.982C179.428 22.8415 179.763 22.7322 179.874 22.6229C180.097 22.5136 180.209 22.1858 180.209 21.8579V21.53Z" fill="black"/>
<path d="M183.777 17.4863C184.446 16.9399 185.339 16.612 186.565 16.612C187.792 16.612 188.684 16.8306 189.353 17.377C190.022 17.9235 190.357 18.7978 190.357 20V20.3278H184.223V20.6557C184.223 21.4207 184.446 21.9672 184.781 22.2951C185.227 22.6229 185.785 22.8415 186.565 22.8415C187.234 22.8415 187.68 22.7322 188.127 22.5136C188.461 22.2951 188.796 22.0765 188.907 21.6393H190.357C190.134 22.4043 189.688 22.9508 189.13 23.2787C188.461 23.6065 187.68 23.8251 186.677 23.8251C185.45 23.8251 184.558 23.4972 183.889 22.9508C183.22 22.4043 182.885 21.4207 182.885 20.1093C182.774 18.9071 183.108 18.0328 183.777 17.4863ZM185.004 18.0328C184.558 18.3606 184.335 18.7978 184.335 19.4535H189.019C189.019 18.7978 188.796 18.2513 188.35 18.0328C187.903 17.7049 187.346 17.5956 186.677 17.5956C185.896 17.5956 185.339 17.8142 185.004 18.0328Z" fill="black"/>
<path d="M193.368 16.7213V19.5628H197.605V16.7213H199.055V23.7158H197.605V20.765H193.368V23.7158H191.918V16.7213H193.368Z" fill="black"/>
<path d="M202.4 16.7213V19.5628H206.638V16.7213H208.088V23.7158H206.638V20.765H202.4V23.7158H200.951V16.7213H202.4Z" fill="black"/>
<path d="M209.983 16.7213H211.433V19.1257H214.556C215.336 19.1257 216.005 19.3443 216.451 19.6721C216.897 20.1093 217.009 20.6557 217.009 21.3115C217.009 22.0765 216.786 22.623 216.451 23.0601C216.005 23.4973 215.448 23.7158 214.556 23.7158H209.983V16.7213ZM215.559 21.2022C215.559 20.8743 215.448 20.6557 215.225 20.4372C215.002 20.2186 214.667 20.1093 214.221 20.1093H211.433V22.623H214.221C214.667 22.623 215.002 22.5137 215.225 22.2951C215.448 22.0765 215.559 21.8579 215.559 21.4208V21.2022ZM219.351 16.7213V23.7158H217.901V16.7213H219.351Z" fill="black"/>
<path d="M222.919 16.7213V22.1858L227.045 16.7213H228.718V23.7158H227.268V18.2513L223.142 23.7158H221.469V16.7213H222.919ZM223.923 13.3333C223.923 13.7705 224.034 14.2076 224.257 14.4262C224.48 14.6448 224.815 14.7541 225.261 14.7541C225.707 14.7541 226.042 14.6448 226.153 14.4262C226.376 14.2076 226.488 13.7705 226.488 13.3333H227.714C227.714 14.0983 227.491 14.7541 227.045 15.0819C226.599 15.5191 226.042 15.7377 225.261 15.7377C224.48 15.7377 223.811 15.5191 223.477 15.0819C223.031 14.6448 222.808 14.0983 222.808 13.3333H223.923Z" fill="black"/>
<path d="M98.8026 38.6885C99.2487 38.6885 99.5832 38.5793 99.8063 38.47C100.029 38.3607 100.252 38.0328 100.475 37.5956L100.698 37.0492L97.1299 29.9454H98.6911L101.367 35.5191L104.044 29.9454H105.382L101.59 37.8142C101.256 38.47 100.921 39.0164 100.587 39.235C100.252 39.4536 99.6947 39.6721 99.0256 39.6721H98.022V38.5792H98.8026V38.6885Z" fill="black"/>
<path d="M108.058 30.0546V32.8962H112.296V30.0546H113.746V37.0492H112.296V34.0983H108.058V37.0492H106.609V30.0546H108.058Z" fill="black"/>
<path d="M117.091 30.0546V35.4098L121.329 30.0546H123.001V37.0492H121.552V31.694L117.314 37.0492H115.641V30.0546H117.091Z" fill="black"/>
<path d="M129.581 30.0547C130.361 30.0547 131.031 30.164 131.365 30.4918C131.7 30.8197 131.923 31.2568 131.923 31.694C131.923 32.0219 131.811 32.3497 131.7 32.6776C131.477 33.0055 131.142 33.2241 130.696 33.3333C131.254 33.4426 131.7 33.6612 131.923 33.9891C132.146 34.317 132.257 34.6448 132.257 34.9727C132.257 35.6284 132.034 36.1749 131.7 36.5027C131.254 36.8306 130.696 36.9399 129.915 36.9399H125.12V29.9454H129.581V30.0547ZM130.361 31.9126C130.361 31.694 130.25 31.4754 130.138 31.2568C130.027 31.1476 129.692 31.0383 129.246 31.0383H126.347V33.0055H129.246C129.692 33.0055 129.915 32.8962 130.138 32.7869C130.25 32.5683 130.361 32.459 130.361 32.1312V31.9126ZM130.584 34.8634C130.584 34.5355 130.473 34.317 130.25 34.2077C130.027 34.0984 129.692 33.9891 129.358 33.9891H126.347V36.1749H129.358C129.804 36.1749 130.138 36.0656 130.25 35.9563C130.473 35.847 130.584 35.5191 130.584 35.1913V34.8634Z" fill="black"/>
<path d="M134.822 30.7104C135.491 30.1639 136.383 29.8361 137.61 29.8361C138.837 29.8361 139.84 30.0546 140.509 30.6011C141.179 31.1475 141.513 32.0219 141.513 33.224V33.5519H135.268V33.8798C135.268 34.6448 135.491 35.1913 135.937 35.5191C136.383 35.847 136.941 36.0656 137.722 36.0656C138.391 36.0656 138.837 35.9563 139.283 35.7377C139.617 35.5191 139.952 35.3005 140.063 34.8634H141.513C141.29 35.6284 140.844 36.1749 140.286 36.5027C139.617 36.8306 138.837 37.0492 137.722 37.0492C136.495 37.0492 135.603 36.7213 134.934 36.1749C134.265 35.6284 133.93 34.6448 133.93 33.3333C133.819 32.2404 134.153 31.3661 134.822 30.7104ZM135.937 31.3661C135.491 31.694 135.268 32.1311 135.268 32.7869H140.063C140.063 32.1311 139.84 31.5847 139.394 31.3661C138.948 31.0382 138.391 30.929 137.61 30.929C136.941 30.929 136.383 31.0382 135.937 31.3661Z" fill="black"/>
<path d="M144.412 30.0547V31.3661C144.635 30.929 145.081 30.4918 145.639 30.2732C146.197 30.0547 146.754 29.9454 147.535 29.9454C148.65 29.9454 149.542 30.2732 150.211 30.8197C150.88 31.3661 151.215 32.3497 151.215 33.6612C151.215 34.9727 150.88 35.9563 150.211 36.5027C149.542 37.0492 148.65 37.3771 147.535 37.3771C146.866 37.3771 146.197 37.2678 145.751 37.0492C145.193 36.8306 144.858 36.5027 144.524 36.0656V40H143.074V30.164H144.412V30.0547ZM149.542 33.2241C149.542 32.459 149.319 31.9126 148.873 31.4754C148.427 31.1476 147.758 30.929 146.977 30.929C146.085 30.929 145.528 31.1476 145.081 31.4754C144.635 31.8033 144.412 32.3497 144.412 33.2241V33.9891C144.412 34.7541 144.635 35.3006 145.081 35.6284C145.528 35.9563 146.197 36.1749 146.977 36.1749C147.758 36.1749 148.427 35.9563 148.873 35.6284C149.319 35.3006 149.542 34.7541 149.542 33.9891V33.2241Z" fill="black"/>
<path d="M153.222 30.8197C153.891 30.2732 154.895 29.9454 156.121 29.9454C157.237 29.9454 158.017 30.164 158.686 30.4918C159.355 30.8197 159.69 31.4754 159.801 32.2405H158.352C158.24 31.8033 158.017 31.4754 157.683 31.3661C157.348 31.1476 156.791 31.1476 156.233 31.1476C155.452 31.1476 154.783 31.3661 154.449 31.694C154.114 32.0219 153.891 32.5683 153.891 33.3333V34.2077C153.891 34.9727 154.114 35.5191 154.56 35.847C155.006 36.1749 155.564 36.2842 156.345 36.2842C157.014 36.2842 157.571 36.1749 157.906 35.9563C158.24 35.7377 158.463 35.5191 158.575 35.082H160.025C159.913 35.847 159.467 36.3935 158.909 36.7213C158.24 37.0492 157.46 37.2678 156.345 37.2678C155.118 37.2678 154.114 37.0492 153.445 36.5028C152.776 35.9563 152.441 35.082 152.441 33.6612C152.218 32.3497 152.553 31.3661 153.222 30.8197Z" fill="black"/>
<path d="M162.366 30.0546V35.4098L166.604 30.0546H168.277V37.0492H166.827V31.694L162.589 37.0492H160.917V30.0546H162.366Z" fill="black"/>
<path d="M169.503 31.1475V30.0546H176.752V31.1475H173.852V37.0492H172.403V31.1475H169.503Z" fill="black"/>
<path d="M178.536 30.7104C179.205 30.1639 180.097 29.8361 181.324 29.8361C182.55 29.8361 183.554 30.0546 184.223 30.6011C184.892 31.1475 185.227 32.0219 185.227 33.224V33.5519H178.982V33.8798C178.982 34.6448 179.205 35.1913 179.651 35.5191C180.097 35.847 180.655 36.0656 181.435 36.0656C182.104 36.0656 182.55 35.9563 182.997 35.7377C183.331 35.5191 183.666 35.3005 183.777 34.8634H185.227C185.004 35.6284 184.558 36.1749 184 36.5027C183.331 36.8306 182.55 37.0492 181.435 37.0492C180.209 37.0492 179.317 36.7213 178.647 36.1749C177.978 35.6284 177.644 34.6448 177.644 33.3333C177.532 32.2404 177.867 31.3661 178.536 30.7104ZM179.651 31.3661C179.205 31.694 178.982 32.1311 178.982 32.7869H183.777C183.777 32.1311 183.554 31.5847 183.108 31.3661C182.662 31.0382 182.104 30.929 181.324 30.929C180.655 30.929 180.097 31.0382 179.651 31.3661Z" fill="black"/>
<path d="M185.896 31.1475V30.0546H193.144V31.1475H190.245V37.0492H188.795V31.1475H185.896Z" fill="black"/>
</svg>
